<?xml version="1.0" encoding="utf-8"?>
<!-- Generator: Adobe Illustrator 15.1.0, SVG Export Plug-In . SVG Version: 6.00 Build 0)  -->
<!DOCTYPE svg PUBLIC "-//W3C//DTD SVG 1.1//EN" "http://www.w3.org/Graphics/SVG/1.1/DTD/svg11.dtd">
<svg version="1.1" id="Camada_1" xmlns="http://www.w3.org/2000/svg" xmlns:xlink="http://www.w3.org/1999/xlink" x="0px" y="0px"
	 width="122.08px" height="29.993px" viewBox="0 0 122.08 29.993" enable-background="new 0 0 122.08 29.993" xml:space="preserve">
<g id="Layer_1">
	<g display="none">
		<path display="inline" fill="#E1F5FE" d="M15.297,14.917c0.489-0.464,0.907-1.007,1.251-1.628c0.345-0.621,0.609-1.33,0.791-2.126
			c0.182-0.797,0.273-1.691,0.273-2.682c0-1.355-0.198-2.547-0.593-3.577c-0.395-1.028-0.966-1.892-1.712-2.587
			c-0.746-0.695-1.656-1.323-2.729-1.68C11.505,0.28,10.285,0,8.917,0H0v28h6V18h2.372l4.122,10H18v-0.662l-4.579-11.217
			C14.036,15.782,14.808,15.38,15.297,14.917z M11.25,11.888C10.699,12.622,9.871,13,8.767,13H6V5h2.917
			c0.552,0,1.029,0.002,1.431,0.196c0.401,0.195,0.73,0.423,0.988,0.78c0.258,0.358,0.446,0.767,0.565,1.275
			c0.119,0.508,0.178,1.069,0.178,1.697C12.079,10.178,11.803,11.154,11.25,11.888z"/>
		<rect x="21" display="inline" fill="#E1F5FE" width="5" height="28"/>
		<path display="inline" fill="#E1F5FE" d="M42.493,0.27c-7.539,0-13.706,6.167-13.706,13.706c0,7.538,6.167,13.706,13.706,13.706
			c7.538,0,13.706-6.168,13.706-13.706C56.199,6.437,50.031,0.27,42.493,0.27z M51.443,16.758l-5.524-5.523l-5.756,5.758
			l-3.152-3.017l-3.292,3.292c-0.386-1.025-0.598-2.134-0.598-3.292c0-5.168,4.205-9.372,9.372-9.372s9.372,4.204,9.372,9.372
			C51.864,14.944,51.717,15.877,51.443,16.758z"/>
	</g>
	<g display="none" enable-background="new    ">
		<path display="inline" fill="#81D4FA" d="M76.422,2.439l2.78,8.691l2.779-8.691h1.727v10.652H82.37V8.943l0.124-4.155
			l-2.787,8.304h-1.024L75.91,4.818l0.125,4.126v4.148h-1.339V2.439H76.422z"/>
		<path display="inline" fill="#81D4FA" d="M89.905,13.091c-0.045-0.098-0.079-0.223-0.105-0.377
			c-0.027-0.153-0.048-0.315-0.063-0.486c-0.092,0.137-0.198,0.266-0.317,0.388c-0.119,0.122-0.254,0.229-0.401,0.322
			s-0.312,0.165-0.481,0.219c-0.175,0.054-0.356,0.081-0.554,0.081c-0.348,0-0.659-0.049-0.939-0.146
			c-0.279-0.097-0.521-0.244-0.72-0.438c-0.201-0.195-0.354-0.436-0.462-0.721c-0.106-0.286-0.161-0.618-0.161-0.999
			c0-0.381,0.065-0.731,0.196-1.054c0.133-0.321,0.328-0.6,0.586-0.834c0.26-0.233,0.582-0.418,0.974-0.552
			c0.392-0.135,0.844-0.201,1.36-0.201h0.899V7.451c0-0.473-0.104-0.81-0.315-1.01c-0.209-0.199-0.527-0.3-0.957-0.3
			c-0.211,0-0.396,0.033-0.562,0.099c-0.161,0.066-0.301,0.155-0.411,0.268c-0.113,0.112-0.199,0.242-0.257,0.391
			c-0.06,0.149-0.088,0.307-0.088,0.473h-1.295c0-0.283,0.062-0.564,0.187-0.846c0.125-0.28,0.303-0.531,0.535-0.753
			c0.229-0.222,0.512-0.401,0.844-0.538c0.332-0.137,0.703-0.205,1.111-0.205c0.366,0,0.701,0.044,1.008,0.132
			c0.305,0.088,0.566,0.229,0.789,0.425c0.223,0.195,0.396,0.446,0.516,0.753c0.123,0.308,0.185,0.684,0.185,1.127v3.899
			c0,0.132,0.004,0.271,0.017,0.417c0.01,0.146,0.023,0.29,0.047,0.432c0.021,0.142,0.05,0.277,0.08,0.406
			c0.031,0.129,0.065,0.247,0.104,0.354v0.117L89.905,13.091L89.905,13.091z M88.179,12.06c0.182,0,0.352-0.027,0.512-0.081
			c0.162-0.054,0.31-0.123,0.439-0.208c0.133-0.086,0.248-0.183,0.348-0.293c0.102-0.109,0.182-0.223,0.238-0.34V9.25h-0.682
			c-0.313,0-0.594,0.034-0.844,0.103c-0.252,0.068-0.467,0.167-0.646,0.296c-0.178,0.13-0.313,0.289-0.41,0.479
			c-0.095,0.19-0.143,0.407-0.143,0.651c0,0.238,0.023,0.439,0.072,0.604c0.051,0.163,0.121,0.295,0.221,0.395
			c0.098,0.101,0.221,0.172,0.367,0.216C87.806,12.038,87.979,12.06,88.179,12.06z"/>
		<path display="inline" fill="#81D4FA" d="M94.704,3.258v1.917h1.193v1.047h-1.193v4.908c0,0.205,0.02,0.37,0.059,0.494
			s0.09,0.221,0.154,0.289c0.063,0.068,0.135,0.113,0.215,0.135c0.081,0.022,0.165,0.033,0.253,0.033
			c0.089,0,0.187-0.011,0.294-0.033c0.105-0.021,0.182-0.04,0.227-0.055l-0.016,1.098c-0.088,0.029-0.203,0.061-0.348,0.095
			c-0.145,0.034-0.328,0.052-0.553,0.052c-0.209,0-0.409-0.035-0.6-0.106c-0.189-0.07-0.357-0.188-0.502-0.354
			s-0.26-0.384-0.345-0.655s-0.128-0.604-0.128-0.998V6.222H92.21V5.175h1.207V3.258H94.704z"/>
		<path display="inline" fill="#81D4FA" d="M100.265,13.238c-0.474,0-0.898-0.071-1.281-0.212c-0.379-0.142-0.703-0.357-0.969-0.647
			s-0.47-0.657-0.611-1.102c-0.141-0.443-0.211-0.968-0.211-1.573V8.812c0-0.698,0.082-1.287,0.248-1.768s0.386-0.87,0.654-1.17
			c0.271-0.3,0.582-0.516,0.934-0.647c0.353-0.132,0.716-0.198,1.092-0.198c0.497,0,0.922,0.082,1.271,0.245
			c0.353,0.164,0.64,0.404,0.862,0.721c0.226,0.317,0.388,0.708,0.49,1.171s0.153,0.997,0.153,1.603v0.753h-4.418v0.183
			c0,0.849,0.158,1.466,0.479,1.852c0.32,0.385,0.779,0.578,1.379,0.578c0.221,0,0.418-0.022,0.594-0.066s0.336-0.105,0.482-0.187
			c0.146-0.08,0.279-0.176,0.402-0.285c0.121-0.109,0.234-0.23,0.344-0.362l0.673,0.819c-0.106,0.151-0.235,0.298-0.388,0.439
			c-0.152,0.141-0.332,0.267-0.541,0.377c-0.211,0.109-0.45,0.198-0.721,0.267C100.911,13.204,100.604,13.238,100.265,13.238z
			 M100.118,6.141c-0.225,0-0.432,0.034-0.622,0.103c-0.19,0.069-0.356,0.189-0.501,0.362s-0.26,0.406-0.348,0.698
			c-0.088,0.293-0.144,0.661-0.162,1.104h3.117V8.234c-0.016-0.308-0.047-0.589-0.1-0.846c-0.052-0.256-0.133-0.477-0.24-0.662
			c-0.109-0.185-0.26-0.329-0.443-0.432C100.635,6.193,100.401,6.141,100.118,6.141z"/>
		<path display="inline" fill="#81D4FA" d="M107.72,6.39c-0.104-0.02-0.197-0.033-0.285-0.04c-0.088-0.008-0.188-0.012-0.301-0.012
			c-0.352,0-0.641,0.098-0.867,0.293c-0.226,0.195-0.398,0.461-0.521,0.798v5.662h-1.295V5.175h1.259l0.021,0.805
			c0.16-0.292,0.36-0.523,0.604-0.694c0.241-0.171,0.53-0.257,0.867-0.257c0.039,0,0.084,0.004,0.135,0.012
			c0.053,0.007,0.104,0.016,0.148,0.025c0.05,0.009,0.096,0.021,0.137,0.033c0.042,0.012,0.07,0.022,0.092,0.032L107.72,6.39z"/>
		<path display="inline" fill="#81D4FA" d="M109.036,3.076c0-0.22,0.061-0.404,0.184-0.556c0.121-0.152,0.305-0.227,0.549-0.227
			c0.242,0,0.428,0.076,0.551,0.23c0.125,0.153,0.188,0.337,0.188,0.552c0,0.22-0.062,0.402-0.184,0.549
			c-0.121,0.146-0.308,0.22-0.556,0.22c-0.244,0-0.429-0.073-0.549-0.22C109.097,3.477,109.036,3.295,109.036,3.076z
			 M110.403,13.091h-1.295V5.175h1.295V13.091z"/>
		<path display="inline" fill="#81D4FA" d="M116.513,13.091c-0.043-0.098-0.078-0.223-0.104-0.377
			c-0.027-0.153-0.049-0.315-0.063-0.486c-0.094,0.137-0.199,0.266-0.318,0.388c-0.118,0.122-0.254,0.229-0.401,0.322
			s-0.312,0.165-0.481,0.219c-0.174,0.054-0.356,0.081-0.554,0.081c-0.347,0-0.659-0.049-0.938-0.146
			c-0.28-0.097-0.521-0.244-0.721-0.438c-0.201-0.195-0.354-0.436-0.461-0.721c-0.107-0.286-0.162-0.618-0.162-0.999
			c0-0.381,0.065-0.731,0.197-1.054c0.133-0.321,0.327-0.6,0.585-0.834c0.261-0.233,0.583-0.418,0.974-0.552
			c0.392-0.135,0.845-0.201,1.36-0.201h0.9V7.451c0-0.473-0.104-0.81-0.315-1.01c-0.21-0.199-0.527-0.3-0.957-0.3
			c-0.211,0-0.396,0.033-0.562,0.099c-0.162,0.066-0.302,0.155-0.412,0.268c-0.113,0.112-0.198,0.242-0.256,0.391
			c-0.06,0.149-0.089,0.307-0.089,0.473h-1.295c0-0.283,0.063-0.564,0.187-0.846c0.125-0.28,0.304-0.531,0.535-0.753
			c0.229-0.222,0.513-0.401,0.844-0.538c0.332-0.137,0.703-0.205,1.112-0.205c0.365,0,0.699,0.044,1.007,0.132
			c0.306,0.088,0.565,0.229,0.789,0.425c0.224,0.195,0.396,0.446,0.517,0.753c0.123,0.308,0.184,0.684,0.184,1.127v3.899
			c0,0.132,0.005,0.271,0.016,0.417c0.01,0.146,0.025,0.29,0.049,0.432c0.021,0.142,0.049,0.277,0.079,0.406
			c0.031,0.129,0.065,0.247,0.104,0.354v0.117L116.513,13.091L116.513,13.091z M114.786,12.06c0.181,0,0.352-0.027,0.512-0.081
			c0.162-0.054,0.309-0.123,0.439-0.208c0.132-0.086,0.248-0.183,0.348-0.293c0.1-0.109,0.18-0.223,0.238-0.34V9.25h-0.682
			c-0.313,0-0.596,0.034-0.846,0.103c-0.252,0.068-0.467,0.167-0.646,0.296c-0.178,0.13-0.313,0.289-0.408,0.479
			s-0.145,0.407-0.145,0.651c0,0.238,0.025,0.439,0.074,0.604c0.049,0.163,0.121,0.295,0.219,0.395
			c0.1,0.101,0.221,0.172,0.369,0.216C114.412,12.038,114.587,12.06,114.786,12.06z"/>
		<path display="inline" fill="#81D4FA" d="M121.013,13.091h-1.295V1.854h1.295V13.091z"/>
	</g>
	<g display="none" enable-background="new    ">
		<path display="inline" fill="#81D4FA" d="M74.694,25.934V15.282h2.539c0.601,0,1.143,0.095,1.625,0.282
			c0.48,0.187,0.895,0.468,1.236,0.841c0.34,0.373,0.604,0.838,0.788,1.391c0.187,0.556,0.278,1.193,0.278,1.92v1.802
			c0,0.728-0.096,1.364-0.278,1.917c-0.187,0.551-0.45,1.012-0.798,1.383c-0.346,0.37-0.771,0.648-1.271,0.838
			c-0.502,0.189-1.07,0.281-1.703,0.281L74.694,25.934L74.694,25.934z M76.034,16.438v8.348h1.076c0.949,0,1.643-0.275,2.076-0.826
			c0.436-0.551,0.65-1.365,0.65-2.442v-1.821c0-1.121-0.217-1.943-0.646-2.47c-0.434-0.522-1.084-0.786-1.957-0.786L76.034,16.438
			L76.034,16.438z"/>
		<path display="inline" fill="#81D4FA" d="M85.896,26.081c-0.473,0-0.897-0.07-1.277-0.211c-0.383-0.143-0.704-0.356-0.971-0.646
			c-0.268-0.29-0.471-0.657-0.609-1.104c-0.145-0.443-0.213-0.968-0.213-1.572v-0.893c0-0.697,0.083-1.287,0.249-1.768
			c0.163-0.48,0.384-0.87,0.653-1.17c0.271-0.301,0.582-0.516,0.934-0.647c0.354-0.132,0.715-0.198,1.09-0.198
			c0.498,0,0.922,0.082,1.271,0.246c0.354,0.164,0.641,0.403,0.863,0.721c0.225,0.316,0.389,0.707,0.49,1.17
			c0.104,0.465,0.154,0.998,0.154,1.604v0.755h-4.42v0.182c0,0.85,0.16,1.467,0.479,1.853s0.778,0.578,1.38,0.578
			c0.22,0,0.415-0.022,0.593-0.065c0.176-0.045,0.336-0.104,0.48-0.188c0.146-0.08,0.281-0.176,0.4-0.285
			c0.123-0.109,0.238-0.23,0.347-0.361l0.673,0.818c-0.105,0.15-0.234,0.299-0.388,0.439c-0.152,0.141-0.331,0.267-0.542,0.377
			c-0.209,0.109-0.449,0.197-0.723,0.267C86.544,26.045,86.237,26.081,85.896,26.081z M85.749,18.984
			c-0.225,0-0.432,0.034-0.621,0.103c-0.189,0.07-0.357,0.189-0.501,0.363c-0.144,0.172-0.26,0.405-0.349,0.697
			c-0.088,0.293-0.141,0.661-0.16,1.104h3.117v-0.174c-0.018-0.309-0.049-0.59-0.102-0.847c-0.051-0.256-0.131-0.478-0.24-0.662
			c-0.108-0.185-0.256-0.329-0.441-0.433C86.267,19.036,86.032,18.984,85.749,18.984z"/>
		<path display="inline" fill="#81D4FA" d="M93.929,23.909c0-0.146-0.025-0.279-0.08-0.398c-0.054-0.119-0.142-0.233-0.264-0.346
			c-0.121-0.107-0.279-0.217-0.473-0.324c-0.192-0.106-0.43-0.225-0.713-0.352c-0.365-0.15-0.693-0.301-0.983-0.445
			c-0.29-0.146-0.534-0.31-0.731-0.486c-0.197-0.18-0.349-0.385-0.453-0.614c-0.104-0.229-0.156-0.506-0.156-0.821
			c0-0.313,0.061-0.604,0.18-0.879c0.119-0.271,0.289-0.512,0.51-0.714c0.221-0.2,0.481-0.36,0.791-0.479
			c0.307-0.116,0.648-0.176,1.029-0.176c0.398,0,0.758,0.063,1.075,0.185c0.315,0.122,0.585,0.291,0.805,0.508
			c0.222,0.22,0.39,0.474,0.505,0.767c0.117,0.293,0.178,0.605,0.178,0.942H93.86c0-0.161-0.029-0.317-0.084-0.474
			c-0.059-0.152-0.142-0.291-0.25-0.412c-0.109-0.122-0.242-0.221-0.398-0.295c-0.156-0.07-0.336-0.107-0.541-0.107
			c-0.22,0-0.406,0.03-0.561,0.094c-0.152,0.061-0.278,0.141-0.377,0.239c-0.099,0.101-0.168,0.218-0.215,0.349
			c-0.049,0.133-0.07,0.27-0.07,0.41c0,0.146,0.021,0.271,0.063,0.377c0.043,0.104,0.113,0.203,0.217,0.297
			c0.104,0.092,0.242,0.185,0.42,0.275c0.18,0.094,0.406,0.2,0.687,0.322c0.397,0.154,0.755,0.313,1.063,0.473
			c0.31,0.158,0.568,0.331,0.777,0.52c0.211,0.188,0.369,0.402,0.477,0.641c0.107,0.239,0.16,0.518,0.16,0.834
			c0,0.348-0.062,0.66-0.186,0.939c-0.125,0.281-0.303,0.521-0.531,0.718c-0.229,0.198-0.504,0.349-0.826,0.454
			c-0.322,0.104-0.678,0.156-1.066,0.156c-0.449,0-0.848-0.068-1.192-0.209c-0.347-0.14-0.637-0.324-0.868-0.557
			c-0.234-0.23-0.412-0.499-0.531-0.801c-0.119-0.305-0.182-0.617-0.182-0.943h1.305c0.01,0.277,0.061,0.508,0.152,0.688
			c0.094,0.182,0.208,0.326,0.35,0.433c0.139,0.106,0.293,0.183,0.463,0.224c0.172,0.041,0.34,0.063,0.506,0.063
			c0.43,0,0.756-0.099,0.98-0.289C93.817,24.495,93.929,24.235,93.929,23.909z"/>
		<path display="inline" fill="#81D4FA" d="M96.937,15.918c0-0.221,0.063-0.404,0.184-0.558c0.123-0.151,0.305-0.227,0.549-0.227
			s0.43,0.076,0.555,0.23c0.125,0.153,0.187,0.335,0.187,0.55c0,0.221-0.062,0.402-0.183,0.549c-0.123,0.146-0.31,0.222-0.559,0.222
			c-0.244,0-0.426-0.073-0.549-0.222C96.997,16.321,96.937,16.138,96.937,15.918z M98.304,25.934h-1.295v-7.916h1.295V25.934z"/>
		<path display="inline" fill="#81D4FA" d="M100.081,21.618c0-0.648,0.063-1.209,0.184-1.683s0.297-0.862,0.527-1.167
			c0.229-0.305,0.506-0.53,0.834-0.678c0.326-0.146,0.691-0.219,1.098-0.219c0.424,0,0.784,0.088,1.082,0.264
			c0.297,0.176,0.549,0.432,0.754,0.769l0.065-0.886h1.171V26c0,0.525-0.07,0.979-0.209,1.365c-0.139,0.383-0.336,0.696-0.589,0.945
			c-0.254,0.248-0.556,0.436-0.903,0.557c-0.35,0.123-0.732,0.184-1.152,0.184c-0.149,0-0.334-0.021-0.549-0.063
			s-0.436-0.104-0.662-0.188c-0.226-0.082-0.444-0.186-0.656-0.311c-0.215-0.125-0.393-0.271-0.538-0.443l0.524-0.893
			c0.283,0.278,0.582,0.479,0.895,0.604s0.605,0.188,0.886,0.188c0.253,0,0.483-0.032,0.688-0.099
			c0.205-0.064,0.381-0.174,0.523-0.322c0.145-0.146,0.256-0.343,0.332-0.581c0.078-0.237,0.117-0.53,0.117-0.878V25.15
			c-0.205,0.304-0.453,0.533-0.743,0.69c-0.288,0.158-0.638,0.238-1.042,0.238c-0.398,0-0.763-0.078-1.087-0.229
			c-0.323-0.151-0.603-0.386-0.83-0.69c-0.228-0.307-0.405-0.693-0.528-1.158c-0.125-0.467-0.188-1.016-0.188-1.645L100.081,21.618
			L100.081,21.618z M101.376,22.357c0,0.888,0.131,1.54,0.393,1.957c0.26,0.417,0.688,0.625,1.283,0.625
			c0.366,0,0.664-0.093,0.893-0.278c0.229-0.185,0.414-0.42,0.559-0.709v-3.957c-0.146-0.283-0.336-0.517-0.566-0.699
			c-0.23-0.184-0.521-0.272-0.867-0.272c-0.601,0-1.03,0.212-1.295,0.638c-0.264,0.424-0.396,1.076-0.396,1.961L101.376,22.357
			L101.376,22.357z"/>
		<path display="inline" fill="#81D4FA" d="M108.94,18.018l0.037,0.855c0.236-0.316,0.521-0.563,0.844-0.738
			c0.324-0.176,0.686-0.264,1.08-0.264c0.322,0,0.615,0.053,0.877,0.155c0.265,0.104,0.488,0.272,0.674,0.507
			c0.186,0.23,0.328,0.527,0.428,0.893c0.102,0.363,0.15,0.804,0.15,1.32v5.188h-1.287v-5.201c0-0.62-0.104-1.061-0.311-1.32
			c-0.209-0.262-0.521-0.392-0.936-0.392c-0.322,0-0.609,0.106-0.867,0.321c-0.256,0.215-0.462,0.494-0.615,0.842v5.75h-1.295
			v-7.916H108.94z"/>
	</g>
	<rect x="64.644" y="0.479" display="none" fill="#81D4FA" width="0.91" height="27.25"/>
</g>
<g>
	<g>
		<path fill="#FFFFFF" d="M-3.812-4.003c12.444,0,24.888,0,37.333,0c0,12.529,0,25.057,0,37.584c-12.527,0-25.056,0-37.584,0
			c0-12.276,0-24.554,0-36.831C-4.084-3.607-4.104-3.961-3.812-4.003z M-3.812-3.002c0,12.111,0,24.22,0,36.331
			c12.361,0,24.721,0,37.082,0c0-12.359,0-24.722,0-37.083c-12.276,0-24.555,0-36.833,0C-3.854-3.711-3.833-3.356-3.812-3.002z"/>
		<path fill="#FFFFFF" d="M-3.562-3.753c12.277,0,24.556,0,36.833,0c0,12.362,0,24.723,0,37.083c-12.361,0-24.721,0-37.082,0
			c0-12.109,0-24.219,0-36.331C-3.833-3.356-3.854-3.711-3.562-3.753z M-3.562-2.75c0,11.944,0,23.887,0,35.829
			c12.194,0,24.389,0,36.583,0c0-12.192,0-24.386,0-36.58c-12.109,0-24.22,0-36.33,0C-3.603-3.46-3.583-3.106-3.562-2.75z"/>
		<path fill="#FFFFFF" d="M-3.31-3.502c12.11,0,24.221,0,36.33,0c0,12.194,0,24.389,0,36.581c-12.194,0-24.388,0-36.583,0
			c0-11.942,0-23.887,0-35.83C-3.583-3.106-3.603-3.46-3.31-3.502z M12.475,10.78c0.553-3.557,8.883-5.536,5.262-10.523
			c1.145,5.59-6.881,6.334-7.016,10.523c-0.067,2.04,2.388,4.474,4.009,5.01C13.57,14.162,12.169,12.74,12.475,10.78z
			 M24.251,26.313c0-0.334,0-0.664,0-1c-3.929,2.519-13.622,2.617-18.292,0.75c0.311-0.856,2.094-0.242,2.255-1.25
			C6.232,25,4.335,25.278,3.706,26.816C8.939,28.892,19.547,28.573,24.251,26.313z M16.483,15.291
			c0.288,1.04-0.527,0.976-0.501,1.754c4.505-1.394,0.373-4.5,0.501-6.515c0.152-2.384,3.08-2.593,4.511-4.26
			C16.12,6.438,12.766,11.545,16.483,15.291z M6.21,18.045c3.871,1.446,11.393,1.39,14.533-0.752c-3.444,0.334-9.228,1.702-12.277,0
			c0.856-0.314,1.801-0.539,2.505-1.003C8.896,16.389,6.903,16.569,6.21,18.045z M8.466,20.802c2.288,2.116,8.152,1.18,11.275,0.502
			c-1.596-2.364-8.223,1.229-10.273-1.505C9.095,20.094,8.348,20.017,8.466,20.802z M17.737,23.308
			c-2.473,1.04-6.455,0.2-8.019-0.251c-0.079,0.341-0.355,0.479-0.25,1.004c1.801,1.854,7.912,1.671,9.772,0
			C18.836,23.711,17.948,23.85,17.737,23.308z M25.504,27.317c0.014-0.467-0.192-0.53-0.501-0.251
			c-4.178,2.045-11.214,2.298-16.788,1.504C12.797,30.374,22.285,30.027,25.504,27.317z"/>
		<path fill="#FF66D2" d="M14.729,15.79c-1.621-0.537-4.076-2.971-4.009-5.01c0.135-4.189,8.161-4.933,7.016-10.523
			c3.621,4.988-4.708,6.967-5.262,10.523C12.169,12.74,13.57,14.162,14.729,15.79z"/>
		<path fill="#FF66D2" d="M20.994,6.27c-1.431,1.667-4.358,1.876-4.511,4.26c-0.128,2.015,4.004,5.12-0.501,6.515
			c-0.026-0.778,0.788-0.714,0.501-1.754C12.766,11.545,16.12,6.438,20.994,6.27z"/>
		<path fill="#FF66D2" d="M10.972,16.292c-0.706,0.463-1.651,0.688-2.505,1.002c3.049,1.704,8.833,0.335,12.277,0
			c-3.14,2.141-10.663,2.198-14.533,0.753C6.903,16.569,8.896,16.389,10.972,16.292z"/>
		<path fill="#FF66D2" d="M19.24,24.061c-1.861,1.671-7.972,1.854-9.772,0c-0.105-0.524,0.172-0.663,0.25-1.004
			c1.564,0.451,5.545,1.291,8.019,0.251C17.948,23.85,18.836,23.711,19.24,24.061z"/>
		<path fill="#FF66D2" d="M3.706,26.815C4.337,25.274,6.233,25,8.214,24.81c-0.162,1.009-1.944,0.396-2.255,1.253
			c4.669,1.866,14.364,1.768,18.292-0.751c0,0.335,0,0.666,0,1.001C19.547,28.573,8.939,28.892,3.706,26.815z"/>
		<path fill="#FF66D2" d="M8.214,28.57c5.574,0.794,12.608,0.541,16.788-1.504c0.309-0.279,0.514-0.216,0.501,0.251
			C22.285,30.027,12.797,30.374,8.214,28.57z"/>
		<path fill="#FF66D2" d="M9.468,19.799c2.051,2.734,8.677-0.859,10.273,1.505c-3.123,0.678-8.987,1.614-11.275-0.502
			C8.348,20.017,9.095,20.094,9.468,19.799z"/>
	</g>
</g>
<g>
	<path fill="#FFFFFF" d="M35.414,27.301l2.209-8.1h1.152l2.24,8.1H40.1l-0.615-2.334h-2.567l-0.589,2.334H35.414z M37.123,24.147
		h2.157l-1.078-4.244L37.123,24.147z"/>
	<path fill="#FFFFFF" d="M41.82,29.348v-8.1h0.82v0.762c0.063-0.262,0.215-0.479,0.455-0.648c0.24-0.17,0.515-0.255,0.823-0.255
		c0.638,0,1.118,0.265,1.438,0.791c0.321,0.528,0.481,1.315,0.481,2.364c0,1.091-0.149,1.892-0.447,2.402
		c-0.298,0.514-0.762,0.77-1.394,0.77c-0.288,0-0.544-0.068-0.771-0.203s-0.404-0.326-0.534-0.574v2.691H41.82z M42.64,24.25
		c0,0.828,0.098,1.44,0.294,1.84c0.196,0.396,0.5,0.597,0.91,0.597c0.375,0,0.648-0.192,0.82-0.576s0.258-1.007,0.258-1.868
		c0-0.839-0.088-1.445-0.263-1.818c-0.175-0.373-0.458-0.561-0.847-0.561c-0.421,0-0.721,0.184-0.902,0.551
		C42.729,22.78,42.64,23.393,42.64,24.25z"/>
	<path fill="#FFFFFF" d="M46.937,27.301v-8.1h0.842v8.1H46.937z"/>
	<path fill="#FFFFFF" d="M49.046,20.301v-1.1h0.873v1.1H49.046z M49.046,27.301v-6.053h0.873v6.053H49.046z"/>
	<path fill="#FFFFFF" d="M54.132,25.172l0.831-0.006c0,0.732-0.168,1.299-0.505,1.699c-0.337,0.398-0.812,0.6-1.425,0.6
		c-0.673,0-1.172-0.266-1.496-0.795c-0.324-0.528-0.487-1.342-0.487-2.439c0-1.057,0.168-1.844,0.505-2.363
		c0.337-0.521,0.847-0.781,1.531-0.781c0.564,0,1.011,0.172,1.338,0.519c0.328,0.345,0.492,0.815,0.492,1.412v0.126H54.09
		c-0.018-0.424-0.109-0.747-0.273-0.969c-0.165-0.221-0.398-0.33-0.7-0.33c-0.414,0-0.709,0.183-0.886,0.55
		c-0.177,0.366-0.266,0.989-0.266,1.869c0,0.891,0.089,1.521,0.268,1.891c0.179,0.37,0.477,0.556,0.894,0.556
		c0.315,0,0.559-0.131,0.731-0.395C54.03,26.049,54.122,25.67,54.132,25.172z"/>
	<path fill="#FFFFFF" d="M60.085,27.313c-0.105,0.018-0.197,0.029-0.276,0.039c-0.079,0.009-0.151,0.014-0.218,0.014
		c-0.238,0-0.426-0.076-0.563-0.227c-0.137-0.151-0.21-0.364-0.221-0.643c-0.129,0.31-0.317,0.545-0.563,0.711
		c-0.246,0.164-0.537,0.246-0.873,0.246c-0.438,0-0.779-0.146-1.023-0.44c-0.244-0.296-0.366-0.708-0.366-1.241
		c0-0.521,0.113-0.921,0.339-1.193c0.226-0.273,0.714-0.537,1.465-0.789l0.016-0.006c0.617-0.207,0.926-0.447,0.926-0.726V22.5
		c0-0.25-0.071-0.432-0.213-0.545s-0.369-0.17-0.681-0.17c-0.302,0-0.526,0.077-0.673,0.235s-0.221,0.399-0.221,0.726v0.105h-0.794
		c0.011-0.617,0.158-1.066,0.442-1.352c0.284-0.285,0.733-0.426,1.346-0.426c0.575,0,0.995,0.129,1.26,0.391
		c0.265,0.262,0.397,0.675,0.397,1.238v3.541c0,0.156,0.028,0.271,0.084,0.338c0.056,0.068,0.147,0.104,0.273,0.104
		c0.024,0,0.063-0.005,0.116-0.016c0.007,0,0.014-0.002,0.021-0.006V27.313z M58.75,24.038c-0.133,0.146-0.428,0.303-0.884,0.467
		c-0.039,0.015-0.066,0.024-0.084,0.031c-0.393,0.137-0.648,0.291-0.768,0.463c-0.12,0.172-0.179,0.426-0.179,0.764
		c0,0.302,0.067,0.535,0.2,0.699c0.133,0.164,0.321,0.246,0.563,0.246c0.351,0,0.63-0.133,0.839-0.398s0.313-0.624,0.313-1.073
		V24.038z"/>
	<path fill="#FFFFFF" d="M63.888,25.172l0.832-0.006c0,0.732-0.169,1.299-0.506,1.699c-0.337,0.398-0.813,0.6-1.425,0.6
		c-0.674,0-1.173-0.266-1.497-0.795c-0.324-0.528-0.487-1.342-0.487-2.439c0-1.057,0.168-1.844,0.505-2.363
		c0.337-0.521,0.847-0.781,1.53-0.781c0.563,0,1.011,0.172,1.339,0.519c0.328,0.345,0.492,0.815,0.492,1.412v0.126h-0.826
		c-0.018-0.424-0.107-0.747-0.273-0.969c-0.164-0.221-0.397-0.33-0.698-0.33c-0.414,0-0.709,0.183-0.888,0.55
		c-0.176,0.366-0.266,0.989-0.266,1.869c0,0.891,0.09,1.521,0.27,1.891c0.179,0.37,0.477,0.556,0.895,0.556
		c0.315,0,0.559-0.131,0.73-0.395C63.786,26.049,63.877,25.67,63.888,25.172z M61.812,29.101l0.084,0.017
		c0.444,0.076,0.729,0.114,0.852,0.114c0.189,0,0.334-0.037,0.432-0.112c0.1-0.076,0.147-0.186,0.147-0.328
		c0-0.147-0.052-0.262-0.155-0.342c-0.104-0.082-0.248-0.121-0.434-0.121c-0.024,0-0.051,0-0.074,0.002s-0.064,0.006-0.121,0.014
		v-1.041h0.4v0.535h0.031c0.34,0,0.605,0.082,0.799,0.246c0.192,0.162,0.289,0.387,0.289,0.67c0,0.34-0.107,0.597-0.326,0.769
		c-0.217,0.172-0.539,0.259-0.967,0.259c-0.134,0-0.279-0.013-0.439-0.035c-0.159-0.022-0.332-0.06-0.518-0.107V29.101z"/>
	<path fill="#FFFFFF" d="M69.841,27.313c-0.104,0.018-0.197,0.029-0.275,0.039c-0.078,0.009-0.151,0.014-0.219,0.014
		c-0.238,0-0.426-0.076-0.563-0.227c-0.137-0.151-0.211-0.364-0.221-0.643c-0.131,0.31-0.317,0.545-0.563,0.711
		c-0.245,0.164-0.536,0.246-0.873,0.246c-0.438,0-0.778-0.146-1.022-0.44c-0.244-0.296-0.364-0.708-0.364-1.241
		c0-0.521,0.112-0.921,0.339-1.193c0.227-0.273,0.715-0.537,1.465-0.789l0.016-0.006c0.617-0.207,0.926-0.447,0.926-0.726V22.5
		c0-0.25-0.07-0.432-0.213-0.545s-0.369-0.17-0.682-0.17c-0.301,0-0.525,0.077-0.673,0.235s-0.222,0.399-0.222,0.726v0.105h-0.793
		c0.01-0.617,0.156-1.066,0.44-1.352s0.732-0.426,1.347-0.426c0.576,0,0.994,0.129,1.261,0.391c0.265,0.262,0.396,0.675,0.396,1.238
		v3.541c0,0.156,0.028,0.271,0.084,0.338c0.057,0.068,0.147,0.104,0.273,0.104c0.023,0,0.063-0.005,0.115-0.016
		c0.008,0,0.015-0.002,0.021-0.006V27.313z M69.047,19.319c-0.049,0.348-0.147,0.61-0.297,0.789
		c-0.149,0.18-0.341,0.268-0.576,0.268c-0.049,0-0.098-0.004-0.147-0.013c-0.049-0.009-0.104-0.022-0.162-0.04l-0.457-0.162
		c-0.018-0.008-0.039-0.013-0.063-0.017c-0.024-0.003-0.063-0.005-0.114-0.005c-0.082,0-0.155,0.029-0.225,0.092
		c-0.068,0.063-0.12,0.146-0.154,0.255h-0.399c0.077-0.34,0.192-0.596,0.347-0.769c0.155-0.172,0.348-0.258,0.579-0.258
		c0.042,0,0.079,0.004,0.112,0.008c0.033,0.007,0.066,0.015,0.103,0.025l0.563,0.172c0.003,0,0.01,0.002,0.021,0.006
		c0.058,0.011,0.099,0.017,0.126,0.017c0.096,0,0.174-0.032,0.234-0.095c0.063-0.063,0.104-0.154,0.124-0.273H69.047z
		 M68.505,24.038c-0.133,0.146-0.428,0.303-0.883,0.467c-0.039,0.015-0.066,0.024-0.084,0.031c-0.395,0.137-0.648,0.291-0.77,0.463
		c-0.119,0.172-0.179,0.426-0.179,0.764c0,0.302,0.065,0.535,0.2,0.699c0.133,0.164,0.32,0.246,0.563,0.246
		c0.352,0,0.631-0.133,0.84-0.398s0.313-0.624,0.313-1.073V24.038z"/>
	<path fill="#FFFFFF" d="M70.541,24.278c0-1.087,0.174-1.893,0.522-2.416c0.35-0.523,0.883-0.785,1.602-0.785
		c0.729,0,1.268,0.258,1.611,0.777c0.347,0.52,0.52,1.327,0.52,2.424c0,1.098-0.172,1.903-0.516,2.417
		c-0.344,0.515-0.883,0.771-1.615,0.771c-0.736,0-1.273-0.254-1.614-0.766C70.711,26.19,70.541,25.381,70.541,24.278z
		 M71.444,24.278c0,0.905,0.094,1.542,0.279,1.912c0.187,0.37,0.5,0.555,0.94,0.555c0.437,0,0.746-0.188,0.935-0.564
		c0.188-0.377,0.28-1.012,0.28-1.901c0-0.897-0.094-1.53-0.28-1.901c-0.188-0.369-0.498-0.555-0.935-0.555
		c-0.438,0-0.751,0.184-0.938,0.551C71.539,22.739,71.444,23.374,71.444,24.278z"/>
	<path fill="#FFFFFF" d="M84.283,27.301v-7.637l-1.972,7.637h-0.879l-1.889-7.637v7.637H78.66v-8.1h1.521l1.703,6.905l1.783-6.905
		h1.499v8.1H84.283z"/>
	<path fill="#FFFFFF" d="M86.371,24.278c0-1.087,0.174-1.893,0.522-2.416c0.35-0.523,0.883-0.785,1.602-0.785
		c0.729,0,1.268,0.258,1.611,0.777c0.347,0.52,0.52,1.327,0.52,2.424c0,1.098-0.172,1.903-0.516,2.417
		c-0.344,0.515-0.883,0.771-1.615,0.771c-0.736,0-1.273-0.254-1.614-0.766C86.541,26.19,86.371,25.381,86.371,24.278z
		 M87.274,24.278c0,0.905,0.094,1.542,0.279,1.912c0.187,0.37,0.5,0.555,0.94,0.555c0.437,0,0.746-0.188,0.935-0.564
		c0.188-0.377,0.28-1.012,0.28-1.901c0-0.897-0.094-1.53-0.28-1.901c-0.188-0.369-0.498-0.555-0.935-0.555
		c-0.438,0-0.751,0.184-0.938,0.551C87.369,22.739,87.274,23.374,87.274,24.278z"/>
	<path fill="#FFFFFF" d="M95.603,27.301h-0.795V26.54c-0.076,0.268-0.234,0.48-0.474,0.643s-0.519,0.242-0.842,0.242
		c-0.624,0-1.101-0.285-1.429-0.854s-0.49-1.397-0.49-2.485c0-0.942,0.164-1.674,0.494-2.194c0.328-0.521,0.789-0.781,1.377-0.781
		c0.32,0,0.602,0.072,0.845,0.216c0.244,0.145,0.397,0.327,0.461,0.553v-2.672h0.853V27.301z M94.808,24.231
		c0-0.884-0.086-1.499-0.261-1.846c-0.174-0.348-0.469-0.521-0.886-0.521c-0.396,0-0.689,0.188-0.879,0.563s-0.283,0.955-0.283,1.74
		c0,0.877,0.09,1.514,0.271,1.906c0.181,0.395,0.467,0.592,0.858,0.592c0.418,0,0.72-0.186,0.902-0.558
		C94.716,25.737,94.808,25.111,94.808,24.231z"/>
	<path fill="#FFFFFF" d="M99.64,25.256h0.832c-0.008,0.715-0.172,1.263-0.492,1.641c-0.32,0.379-0.777,0.568-1.369,0.568
		c-0.652,0-1.135-0.254-1.444-0.764c-0.31-0.508-0.465-1.295-0.465-2.361c0-1.129,0.155-1.955,0.465-2.479
		c0.312-0.523,0.799-0.785,1.465-0.785c0.628,0,1.095,0.223,1.401,0.668c0.308,0.444,0.461,1.123,0.461,2.034
		c0,0.144-0.001,0.253-0.003,0.326c-0.003,0.073-0.005,0.14-0.009,0.199l-2.907,0.006v0.269c0,0.758,0.087,1.31,0.263,1.656
		c0.176,0.348,0.454,0.521,0.836,0.521c0.299,0,0.534-0.131,0.708-0.393c0.173-0.262,0.261-0.615,0.261-1.064v-0.043H99.64z
		 M97.573,23.622h2.056v-0.164c0-0.558-0.081-0.978-0.244-1.26c-0.163-0.281-0.407-0.423-0.733-0.423
		c-0.364,0-0.635,0.151-0.813,0.455S97.573,22.997,97.573,23.622z"/>
	<path fill="#FFFFFF" d="M101.603,27.301v-8.1h0.842v8.1H101.603z"/>
	<path fill="#FFFFFF" d="M103.548,24.278c0-1.087,0.174-1.893,0.523-2.416c0.349-0.523,0.882-0.785,1.601-0.785
		c0.729,0,1.267,0.258,1.612,0.777s0.52,1.327,0.52,2.424c0,1.098-0.173,1.903-0.517,2.417c-0.345,0.515-0.882,0.771-1.615,0.771
		c-0.735,0-1.274-0.254-1.614-0.766C103.718,26.19,103.548,25.381,103.548,24.278z M104.452,24.278c0,0.905,0.093,1.542,0.277,1.912
		c0.188,0.37,0.5,0.555,0.941,0.555c0.436,0,0.746-0.188,0.934-0.564c0.188-0.377,0.281-1.012,0.281-1.901
		c0-0.897-0.094-1.53-0.281-1.901c-0.188-0.369-0.498-0.555-0.934-0.555c-0.438,0-0.751,0.184-0.938,0.551
		C104.546,22.739,104.452,23.374,104.452,24.278z"/>
</g>
<g>
	<path fill="#FFFFFF" d="M33.998,10.87h2.254v1.566c0,0.35,0.07,0.611,0.211,0.783c0.141,0.172,0.357,0.258,0.65,0.258
		c0.315,0,0.532-0.099,0.65-0.297c0.117-0.198,0.176-0.658,0.176-1.381v-0.603V1.808h2.418v9.32c0,0.924-0.019,1.552-0.056,1.885
		c-0.037,0.333-0.102,0.6-0.193,0.8c-0.247,0.528-0.617,0.921-1.11,1.179c-0.494,0.258-1.127,0.387-1.902,0.387
		c-1.027,0-1.8-0.265-2.319-0.796c-0.52-0.531-0.779-1.318-0.779-2.362V10.87z"/>
	<path fill="#FFFFFF" d="M47.269,15.061c-0.052-0.075-0.096-0.187-0.133-0.335c-0.038-0.149-0.076-0.359-0.116-0.628
		c-0.241,0.402-0.552,0.707-0.934,0.917c-0.382,0.209-0.828,0.314-1.338,0.314c-0.757,0-1.347-0.255-1.769-0.766
		s-0.632-1.219-0.632-2.126c0-0.82,0.185-1.473,0.555-1.958c0.37-0.485,1.102-0.972,2.198-1.459
		c0.109-0.052,0.264-0.121,0.464-0.207c0.901-0.384,1.352-0.835,1.352-1.351c0-0.315-0.088-0.558-0.263-0.727
		c-0.175-0.169-0.429-0.254-0.762-0.254c-0.419,0-0.727,0.112-0.925,0.335c-0.198,0.224-0.297,0.574-0.297,1.05v0.198h-2.237
		c0-1.119,0.274-1.934,0.822-2.444c0.548-0.51,1.427-0.766,2.638-0.766s2.06,0.234,2.547,0.702c0.487,0.468,0.731,1.287,0.731,2.457
		v5.62c0,0.275,0.026,0.526,0.078,0.753c0.052,0.227,0.138,0.452,0.258,0.676L47.269,15.061L47.269,15.061z M46.95,9.846
		c-0.866,0.436-1.453,0.826-1.76,1.17c-0.307,0.344-0.46,0.752-0.46,1.222c0,0.442,0.082,0.768,0.245,0.977
		c0.164,0.209,0.42,0.314,0.771,0.314c0.401,0,0.703-0.175,0.903-0.525c0.201-0.35,0.301-0.875,0.301-1.575V9.846z"/>
	<path fill="#FFFFFF" d="M52.604,15.061l-2.307-9.957h2.444l1.325,7.616l1.265-7.616h2.384l-2.298,9.957H52.604z"/>
	<path fill="#FFFFFF" d="M63.638,15.061c-0.052-0.075-0.097-0.187-0.134-0.335c-0.037-0.149-0.075-0.359-0.116-0.628
		c-0.24,0.402-0.552,0.707-0.934,0.917c-0.383,0.21-0.828,0.314-1.338,0.314c-0.757,0-1.347-0.255-1.769-0.766
		c-0.422-0.511-0.632-1.219-0.632-2.126c0-0.82,0.185-1.473,0.555-1.958s1.103-0.971,2.199-1.459
		c0.108-0.052,0.264-0.121,0.465-0.207c0.899-0.384,1.351-0.835,1.351-1.351c0-0.315-0.087-0.558-0.263-0.727
		s-0.43-0.254-0.762-0.254c-0.419,0-0.728,0.112-0.926,0.335c-0.198,0.224-0.297,0.574-0.297,1.05v0.198h-2.237
		c0-1.119,0.274-1.934,0.822-2.444c0.548-0.51,1.427-0.766,2.638-0.766s2.061,0.234,2.547,0.702
		c0.487,0.468,0.731,1.287,0.731,2.457v5.62c0,0.275,0.026,0.526,0.078,0.753c0.051,0.227,0.138,0.452,0.258,0.676L63.638,15.061
		L63.638,15.061z M63.319,9.846c-0.867,0.436-1.453,0.826-1.762,1.17c-0.307,0.344-0.459,0.752-0.459,1.222
		c0,0.442,0.082,0.768,0.245,0.977c0.164,0.209,0.42,0.314,0.771,0.314c0.4,0,0.701-0.175,0.902-0.525s0.303-0.875,0.303-1.575
		V9.846z"/>
</g>
</svg>
